<svg xmlns="http://www.w3.org/2000/svg" xmlns:xlink="http://www.w3.org/1999/xlink" width="200" height="100" viewBox="0 0 200 100">
    <defs>
        <path id="a" d="M37.084 37.908v9.188a1.01 1.01 0 0 0 1.014 1.012 1.01 1.01 0 0 0 1.014-1.012v-9.188a2.28 2.28 0 0 1 2.278-2.274 2.275 2.275 0 0 1 2.277 2.274v23.661c0 .082 0 .156-.009.239a2.13 2.13 0 0 1-2.139 2.062 2.14 2.14 0 0 1-1.78-.949c-.018-.026-.027-.045-.037-.045L23.106 36.012c-.176-.314-1.43-2.403-3.781-2.403a4.307 4.307 0 0 0-4.306 4.299v17.841c0 2.376 1.936 4.3 4.306 4.3 2.378 0 4.306-1.933 4.306-4.29l.018-8.82a1.016 1.016 0 0 0-.995-1.03h-.019c-.553 0-1.005.442-1.014.993l-.018 8.829a2.282 2.282 0 0 1-2.278 2.275 2.281 2.281 0 0 1-2.278-2.275V37.908a2.28 2.28 0 0 1 2.278-2.274c1.254 0 2 1.353 2 1.362l.028.056L37.96 63.934c.009.019.111.175.276.378.287.359.628.663 1.014.912a3.86 3.86 0 0 0 1.826.644c.038 0 .388.018.434.018a4.176 4.176 0 0 0 4.177-4.171V37.908h.009a4.307 4.307 0 0 0-4.306-4.299 4.312 4.312 0 0 0-4.306 4.299z"/>
        <path id="c" d="M.32.425h199.999v99.323H.32z"/>
    </defs>
    <g fill="none" fill-rule="evenodd">
        <g transform="translate(0 .479)">
            <path fill="#F7F7F7" d="M0 0h200v100H0z"/>
            <mask id="b" fill="#fff">
                <use xlink:href="#a"/>
            </mask>
            <path fill="#00BAA4" d="M12.713 68.192h35.288V31.303H12.713z" mask="url(#b)"/>
        </g>
        <g transform="translate(0 .479)">
            <mask id="d" fill="#fff">
                <use xlink:href="#c"/>
            </mask>
            <path stroke="#E3E3E3" d="M-16.805 115.151c0-4.61 3.738-15.349 8.349-15.349h108.644c6.88-6.045 2.687-13.708-3.295-13.708H-5.574V-.479H201l2.693 48.31a8.037 8.037 0 0 1-8.038 8.036H163.42c-7.761 0-14.44 5.964-14.805 13.717-.39 8.277 6.206 15.11 14.398 15.11h56.714c4.117 0 4.117 19.408 0 19.408l-95.818 6.94c-7.347 0-54.252 1.37-140.715 4.11z" mask="url(#d)"/>
        </g>
    </g>
</svg>
