<svg xmlns="http://www.w3.org/2000/svg" xmlns:xlink="http://www.w3.org/1999/xlink" width="650" height="150" viewBox="0 0 650 150">
    <defs>
        <path id="a" d="M0 0h650v150H0z"/>
    </defs>
    <g fill="none" fill-rule="evenodd">
        <mask id="b" fill="#fff">
            <use xlink:href="#a"/>
        </mask>
        <use fill="#74E3D6" xlink:href="#a"/>
        <g mask="url(#b)">
            <path fill="#00BAA4" d="M0 0h650v150H0z"/>
            <path fill="none" stroke="#09E4CA" d="M-50.852 203.992c0-14.917 12.092-27.009 27.008-27.009h276.347c11.164 0 20.215-9.05 20.215-20.215 0-11.164-9.05-20.215-20.215-20.215H-30.553c-30.32 0-54.898-24.578-54.898-54.898V52.506c0-14.22 11.528-25.749 25.75-25.749 14.22 0 25.748-11.528 25.748-25.748V-8l692.079-4V8.757c0 14.36-11.64 26-26 26h-94.824c-23.543 0-42.628 19.086-42.628 42.629s19.085 42.628 42.628 42.628h177.033c13.319 0 24.116 10.797 24.116 24.116 0 13.32-10.797 24.117-24.116 24.117H447.343c-35.657 0-65.616 26.802-69.569 62.24l-.057.513h-401.56c-14.917 0-27.01-12.092-27.01-27.008z"/>
            <path stroke="#06FDDE" stroke-linecap="round" stroke-width="3" d="M249 136c16.016 0 29 12.984 29 29"/>
        </g>
    </g>
</svg>
