<svg xmlns="http://www.w3.org/2000/svg" width="650" height="150" viewBox="0 0 650 150">
    <g fill="none" fill-rule="evenodd">
        <path fill="#F7F7F7" d="M0 0h650v150H0z"/>
        <path fill="none" stroke="#E3E3E3" d="M-52.401 204.992c0-14.917 12.092-27.009 27.008-27.009h273.18c12.247 0 22.174-9.927 22.174-22.174 0-12.246-9.927-22.173-22.173-22.173H-34.061c-29.237 0-52.939-23.702-52.939-52.94v-26.25c0-14.74 11.95-26.689 26.69-26.689 14.74 0 26.689-11.949 26.689-26.689V-7l694.532-4V1.757c0 14.36-11.64 26-26 26H529.315c-25.752 0-46.628 20.877-46.628 46.629s20.876 46.628 46.628 46.628h183.47c13.32 0 24.117 10.797 24.117 24.116 0 13.32-10.797 24.117-24.116 24.117H445.794c-35.657 0-65.616 26.802-69.569 62.24l-.057.513H-25.393c-14.916 0-27.008-12.092-27.008-27.008z"/>
    </g>
</svg>
