<svg xmlns="http://www.w3.org/2000/svg" width="67" height="70" viewBox="0 0 67 70">
    <path fill="#FFF" fill-rule="evenodd" d="M66.529 9.324c0-5.151-4.2-9.324-9.339-9.324s-9.338 4.193-9.338 9.324V29.25c0 1.218.98 2.196 2.2 2.196 1.22 0 2.2-.978 2.2-2.196V9.324c0-2.715 2.219-4.932 4.938-4.932 2.72 0 4.94 2.197 4.94 4.932v51.312c0 .18 0 .34-.02.52a4.62 4.62 0 0 1-4.64 4.471 4.64 4.64 0 0 1-3.859-2.056c-.04-.06-.06-.1-.08-.1L17.537 5.211C17.157 4.532 14.437 0 9.338 0 4.18 0 0 4.193 0 9.324v38.694c0 5.15 4.2 9.324 9.338 9.324 5.16 0 9.339-4.193 9.339-9.304l.04-19.128a2.205 2.205 0 0 0-2.16-2.236h-.04c-1.2 0-2.18.959-2.2 2.157l-.04 19.147c0 2.715-2.219 4.931-4.939 4.931S4.4 50.693 4.4 47.978V9.324c0-2.715 2.22-4.932 4.94-4.932 2.719 0 4.339 2.935 4.339 2.955l.06.12 36.014 58.3c.02.04.24.38.6.819a9.024 9.024 0 0 0 2.2 1.976 8.34 8.34 0 0 0 3.959 1.398c.08 0 .84.04.94.04 4.999 0 9.058-4.053 9.058-9.044V9.324h.02z"/>
</svg>
